<svg width="191" height="191" viewBox="0 0 191 191" fill="none" xmlns="http://www.w3.org/2000/svg">
<circle cx="101.613" cy="101" r="89.2731" fill="#F25959" fill-opacity="0.2"/>
<g filter="url(#filter0_d_977_7803)">
<path d="M101.877 45.5498L102.522 45.5884C103.753 45.7336 104.9 46.2893 105.776 47.1659C106.653 48.0425 107.208 49.1888 107.354 50.4199L107.392 51.0652V73.1269L107.42 73.9542C107.617 76.5805 108.748 79.0495 110.607 80.9148C112.466 82.7802 114.931 83.9187 117.557 84.1247L118.423 84.1577H140.485L141.13 84.1964C142.361 84.3415 143.507 84.8973 144.384 85.7738C145.261 86.6504 145.816 87.7967 145.962 89.0279L146 89.6732V139.312C146 143.532 144.388 147.593 141.492 150.664C138.597 153.735 134.638 155.583 130.425 155.831L129.454 155.858H74.2997C70.0792 155.858 66.0182 154.246 62.9475 151.351C59.8768 148.455 58.0286 144.496 57.781 140.283L57.7534 139.312V62.0961C57.7532 57.8756 59.3657 53.8146 62.2611 50.7439C65.1564 47.6732 69.1158 45.825 73.329 45.5774L74.2997 45.5498H101.877Z" fill="url(#paint0_linear_977_7803)"/>
<path d="M140.485 73.1263H118.423L118.418 51.0591L140.485 73.1263Z" fill="url(#paint1_linear_977_7803)"/>
</g>
<g filter="url(#filter1_d_977_7803)">
<path d="M37.926 70.725L47.1135 61.59L56.301 70.725L62.426 64.635L53.2385 55.5L62.426 46.365L56.301 40.275L47.1135 49.41L37.926 40.275L31.801 46.365L40.9885 55.5L31.801 64.635L37.926 70.725ZM47.1135 99C36.9781 96.4625 28.6102 90.6799 22.0098 81.6522C15.4094 72.6245 12.1106 62.6021 12.1135 51.585V25.05L47.1135 12L82.1135 25.05V51.585C82.1135 62.605 78.8148 72.6288 72.2173 81.6565C65.6198 90.6842 57.2519 96.4654 47.1135 99Z" fill="url(#paint2_linear_977_7803)"/>
</g>
<defs>
<filter id="filter0_d_977_7803" x="45.7534" y="33.5498" width="112.247" height="134.309" filterUnits="userSpaceOnUse" color-interpolation-filters="sRGB">
<feFlood flood-opacity="0" result="BackgroundImageFix"/>
<feColorMatrix in="SourceAlpha" type="matrix" values="0 0 0 0 0 0 0 0 0 0 0 0 0 0 0 0 0 0 127 0" result="hardAlpha"/>
<feOffset/>
<feGaussianBlur stdDeviation="6"/>
<feComposite in2="hardAlpha" operator="out"/>
<feColorMatrix type="matrix" values="0 0 0 0 0 0 0 0 0 0 0 0 0 0 0 0 0 0 0.15 0"/>
<feBlend mode="normal" in2="BackgroundImageFix" result="effect1_dropShadow_977_7803"/>
<feBlend mode="normal" in="SourceGraphic" in2="effect1_dropShadow_977_7803" result="shape"/>
</filter>
<filter id="filter1_d_977_7803" x="0.113525" y="0" width="94" height="111" filterUnits="userSpaceOnUse" color-interpolation-filters="sRGB">
<feFlood flood-opacity="0" result="BackgroundImageFix"/>
<feColorMatrix in="SourceAlpha" type="matrix" values="0 0 0 0 0 0 0 0 0 0 0 0 0 0 0 0 0 0 127 0" result="hardAlpha"/>
<feOffset/>
<feGaussianBlur stdDeviation="6"/>
<feComposite in2="hardAlpha" operator="out"/>
<feColorMatrix type="matrix" values="0 0 0 0 0 0 0 0 0 0 0 0 0 0 0 0 0 0 0.15 0"/>
<feBlend mode="normal" in2="BackgroundImageFix" result="effect1_dropShadow_977_7803"/>
<feBlend mode="normal" in="SourceGraphic" in2="effect1_dropShadow_977_7803" result="shape"/>
</filter>
<linearGradient id="paint0_linear_977_7803" x1="101.877" y1="45.5498" x2="101.877" y2="155.858" gradientUnits="userSpaceOnUse">
<stop stop-color="#FFC5C5"/>
<stop offset="1" stop-color="#BC4D4D"/>
</linearGradient>
<linearGradient id="paint1_linear_977_7803" x1="129.451" y1="51.0591" x2="129.451" y2="73.1263" gradientUnits="userSpaceOnUse">
<stop stop-color="#FFC5C5"/>
<stop offset="1" stop-color="#BC4D4D"/>
</linearGradient>
<linearGradient id="paint2_linear_977_7803" x1="10.2996" y1="9.85915" x2="67.7666" y2="107.395" gradientUnits="userSpaceOnUse">
<stop stop-color="#F25959"/>
<stop offset="1" stop-color="#A70000"/>
</linearGradient>
</defs>
</svg>
